<svg width="38" height="26" viewBox="0 0 44 32" fill="none" xmlns="http://www.w3.org/2000/svg">

<path fill="#f4e041" style="fill: var(--color1, #f4e041)" d="M30.851 21.274c0.13 0.936-0.224 1.829-0.866 2.389-0.119 0.105-0.248 0.198-0.386 0.277-0.125 0.071-0.255 0.132-0.392 0.18-0.312 0.11-0.637 0.151-0.957 0.131-0.009 0-0.017 0-0.026-0.002-0.643-0.046-1.263-0.338-1.702-0.805-0.712-0.756-0.691-1.696-0.683-1.893 0-0.095 0.004-0.187 0.015-0.278h-7.734c0.011 0.091 0.015 0.183 0.015 0.278 0.009 0.196 0.029 1.136-0.682 1.893-0.439 0.467-1.058 0.759-1.702 0.805-0.009 0.002-0.017 0.002-0.026 0.002-0.32 0.020-0.645-0.020-0.956-0.131-0.138-0.048-0.268-0.109-0.392-0.18-0.138-0.079-0.266-0.172-0.386-0.276-0.001 0-0.001-0.001-0.001-0.001-0.64-0.561-0.994-1.454-0.864-2.389h-2.786c0.018-0.069 0.038-0.138 0.056-0.207 0.347-1.276 0.693-2.553 1.040-3.828l0.227-0.011 2.661-0.118c0.12-0.005 0.212-0.105 0.207-0.223-0.005-0.119-0.104-0.211-0.226-0.205l-2.75 0.122c0.126-0.466 0.252-0.93 0.378-1.395l2.376 0.195c0.112 0 0.207-0.085 0.216-0.196 0.010-0.118-0.078-0.222-0.197-0.232l-2.279-0.189c0.128-0.471 0.256-0.942 0.384-1.412l0.204 0.078 2.028 0.776c0.025 0.010 0.052 0.015 0.078 0.015 0.087 0 0.169-0.053 0.201-0.137 0.043-0.111-0.012-0.235-0.124-0.278l-2.274-0.87c1.123-4.135 2.248-8.271 3.371-12.405 0.811 2.472 1.622 4.944 2.432 7.415 0.572-0.288 1.905-0.877 3.632-0.85h0.015c1.727-0.027 3.060 0.562 3.632 0.85 0.81-2.471 1.621-4.943 2.432-7.415 1.123 4.134 2.248 8.269 3.371 12.405l-0.204 0.077-2.070 0.793c-0.112 0.043-0.168 0.167-0.125 0.278 0.034 0.085 0.116 0.137 0.203 0.137 0.026 0 0.052-0.005 0.078-0.015l2.232-0.854c0.128 0.47 0.256 0.941 0.383 1.412l-2.279 0.189c-0.119 0.010-0.208 0.114-0.198 0.232 0.010 0.112 0.105 0.196 0.216 0.196h0.018l2.358-0.195c0.126 0.465 0.252 0.929 0.378 1.395l-0.226-0.011-2.525-0.112c-0.122-0.004-0.221 0.086-0.226 0.205-0.006 0.118 0.088 0.218 0.207 0.223l2.89 0.129c0.347 1.276 0.693 2.553 1.040 3.828 0.018 0.069 0.038 0.138 0.056 0.207h-2.786z"></path>
<path fill="#000" style="fill: var(--color2, #000)" opacity="0.87" d="M33.918 21.489l-0.056-0.206-0.059-0.216-1.038-3.819-0.225-0.010-0.227-0.011 1.041 3.832h-2.753l0.034 0.244c0.103 0.737-0.118 1.452-0.561 1.967-0.085 0.099-0.178 0.19-0.277 0.271-0.030 0.026-0.062 0.050-0.093 0.073-0.065 0.049-0.132 0.093-0.203 0.133-0.116 0.068-0.238 0.126-0.367 0.171-0.215 0.076-0.438 0.117-0.662 0.123-0.074 0.002-0.147 0-0.221-0.004-0.072-0.004-0.143-0.013-0.215-0.025-0.507-0.080-0.991-0.327-1.355-0.715-0.605-0.643-0.638-1.428-0.624-1.746 0-0.093 0.004-0.176 0.013-0.253l0.028-0.239h-8.221l0.028 0.239c0.009 0.077 0.014 0.16 0.014 0.262 0.013 0.309-0.021 1.094-0.625 1.737-0.364 0.387-0.848 0.634-1.354 0.715-0.071 0.012-0.143 0.020-0.214 0.025-0.074 0.004-0.147 0.006-0.221 0.004-0.225-0.006-0.448-0.047-0.663-0.123-0.128-0.045-0.25-0.102-0.365-0.169h-0.001c-0.070-0.040-0.139-0.085-0.204-0.134-0.031-0.023-0.063-0.047-0.093-0.073-0.1-0.081-0.193-0.173-0.277-0.271-0.443-0.515-0.664-1.23-0.561-1.967l0.034-0.244h-2.751l1.041-3.832-0.227 0.011-0.226 0.010-1.153 4.24h2.829c-0.072 1.261 0.661 2.428 1.809 2.834 1 0.354 2.172 0.060 2.916-0.732 0.716-0.762 0.756-1.687 0.741-2.039 0-0.021-0.001-0.043-0.001-0.063h7.272v0.054c-0.016 0.362 0.024 1.286 0.74 2.048 0.535 0.569 1.289 0.88 2.042 0.88 0.296 0 0.592-0.048 0.874-0.148 1.148-0.406 1.88-1.573 1.809-2.834h2.829zM11.934 15.409l-0.22-0.018-0.386 1.423 0.227-0.010 0.226-0.011 0.371-1.366-0.22-0.018zM28.079 0l-0.227 0.688c-0.676 2.062-1.353 4.125-2.029 6.186l-0.326 0.995c-0.824-0.384-2.046-0.789-3.502-0.763h-0.012c-1.46-0.024-2.682 0.379-3.506 0.763l-0.326-0.995c-0.676-2.061-1.352-4.123-2.029-6.186l-0.226-0.688-3.554 13.081 0.204 0.078 0.204 0.077 3.187-11.729c0.601 1.834 1.202 3.666 1.803 5.499l0.482 1.468 0.225-0.114c0.776-0.391 2.022-0.854 3.535-0.826h0.018c1.517-0.026 2.755 0.436 3.53 0.826l0.226 0.114 0.481-1.468c0.6-1.833 1.201-3.665 1.804-5.499l3.187 11.729 0.204-0.077 0.203-0.078-3.554-13.081zM12.228 13.497l-0.4 1.472 0.44 0.037 0.367-1.352-0.407-0.157zM31.747 13.498l-0.203 0.077-0.204 0.078 0.367 1.352 0.22-0.018 0.219-0.017-0.4-1.472zM32.262 15.391l-0.439 0.036 0.372 1.366 0.226 0.011 0.226 0.010-0.386-1.423z"></path>
<path fill="#000" style="fill: var(--color2, #000)" opacity="0.87" d="M23.705 14.070c-0.255 0-0.46-0.204-0.46-0.456v-2.764c0-0.252 0.206-0.456 0.46-0.456s0.46 0.204 0.46 0.456v2.764c0 0.251-0.206 0.456-0.46 0.456z"></path>
<path fill="#000" style="fill: var(--color2, #000)" opacity="0.87" d="M20.542 13.587c-0.252 0.027-0.48-0.155-0.507-0.406l-0.224-2.086c-0.027-0.25 0.156-0.475 0.41-0.502 0.252-0.027 0.48 0.155 0.507 0.406l0.224 2.086c0.027 0.251-0.156 0.475-0.409 0.502z"></path>
<path fill="#000" style="fill: var(--color2, #000)" opacity="0.87" d="M14.941 14.307c-0.032 0.085-0.115 0.137-0.201 0.137-0.026 0-0.053-0.005-0.078-0.015l-5.381-2.060c-0.113-0.043-0.168-0.167-0.125-0.278s0.169-0.165 0.281-0.122l5.382 2.060c0.112 0.043 0.167 0.167 0.123 0.278z"></path>
<path fill="#000" style="fill: var(--color2, #000)" opacity="0.87" d="M14.523 15.408c-0.009 0.112-0.104 0.196-0.216 0.196h-0.018l-5.75-0.476c-0.119-0.010-0.208-0.114-0.197-0.232 0.010-0.118 0.113-0.206 0.234-0.195l5.75 0.475c0.119 0.010 0.207 0.114 0.197 0.232z"></path>
<path fill="#000" style="fill: var(--color2, #000)" opacity="0.87" d="M14.531 16.887c0.005 0.118-0.087 0.218-0.207 0.223l-5.774 0.256c-0.115 0-0.211-0.090-0.216-0.205-0.005-0.119 0.087-0.219 0.206-0.224l5.764-0.255c0.122-0.006 0.221 0.086 0.226 0.205z"></path>
<path fill="#000" style="fill: var(--color2, #000)" opacity="0.87" d="M34.693 12.369l-5.382 2.060c-0.026 0.010-0.052 0.015-0.078 0.015-0.087 0-0.169-0.053-0.203-0.137-0.043-0.111 0.013-0.235 0.125-0.278l5.382-2.060c0.111-0.043 0.237 0.012 0.281 0.122 0.042 0.111-0.013 0.235-0.125 0.278z"></path>
<path fill="#000" style="fill: var(--color2, #000)" opacity="0.87" d="M35.63 14.896c0.010 0.118-0.079 0.222-0.198 0.232l-5.768 0.476c-0.11 0-0.206-0.085-0.216-0.196-0.010-0.118 0.079-0.222 0.198-0.232l5.75-0.475c0.119-0.012 0.224 0.077 0.234 0.195z"></path>
<path fill="#000" style="fill: var(--color2, #000)" opacity="0.87" d="M35.638 17.161c-0.006 0.115-0.101 0.205-0.217 0.205h-0.010l-5.764-0.256c-0.119-0.005-0.212-0.105-0.207-0.223 0.006-0.119 0.104-0.209 0.226-0.205l5.764 0.255c0.12 0.005 0.212 0.105 0.207 0.224z"></path>
<path fill="#fff" style="fill: var(--color3, #fff)" d="M28.161 22.192c0.083 0.236 0.154 0.524 0.177 0.853 0.027 0.387-0.022 0.724-0.089 0.991l-0.088-1.844z"></path>
<path fill="#000" style="fill: var(--color2, #000)" opacity="0.87" d="M28.25 24.252c-0.017 0-0.035-0.002-0.052-0.006-0.116-0.028-0.187-0.145-0.158-0.26 0.076-0.306 0.104-0.617 0.082-0.925-0.018-0.267-0.075-0.535-0.166-0.797-0.039-0.112 0.021-0.234 0.134-0.272s0.236 0.020 0.275 0.133c0.104 0.297 0.167 0.603 0.189 0.908 0.025 0.353-0.008 0.708-0.094 1.058-0.025 0.097-0.114 0.162-0.21 0.162z"></path>
<path fill="#fff" style="fill: var(--color3, #fff)" d="M29.574 22.108c0.133 0.211 0.248 0.469 0.284 0.764 0.043 0.347-0.035 0.648-0.143 0.888l-0.141-1.652z"></path>
<path fill="#000" style="fill: var(--color2, #000)" opacity="0.87" d="M29.715 23.974c-0.029 0-0.059-0.006-0.088-0.018-0.109-0.048-0.159-0.175-0.11-0.283 0.115-0.258 0.156-0.518 0.125-0.776-0.028-0.225-0.113-0.453-0.252-0.677-0.063-0.101-0.031-0.233 0.070-0.295s0.235-0.031 0.298 0.070c0.173 0.277 0.278 0.563 0.314 0.851 0.041 0.335-0.012 0.672-0.158 1.001-0.036 0.081-0.115 0.128-0.198 0.128z"></path>
<path fill="#fff" style="fill: var(--color3, #fff)" d="M15.815 22.192c-0.083 0.236-0.154 0.524-0.177 0.853-0.027 0.387 0.022 0.724 0.089 0.991l0.088-1.844z"></path>
<path fill="#000" style="fill: var(--color2, #000)" opacity="0.87" d="M15.724 24.252c-0.097 0-0.185-0.066-0.21-0.163-0.087-0.349-0.119-0.705-0.094-1.058 0.021-0.306 0.085-0.611 0.189-0.908 0.039-0.112 0.163-0.172 0.275-0.133s0.173 0.161 0.134 0.273c-0.091 0.262-0.147 0.529-0.166 0.797-0.022 0.308 0.007 0.619 0.082 0.925 0.028 0.115-0.042 0.232-0.158 0.26-0.017 0.005-0.035 0.008-0.052 0.008z"></path>
<path fill="#fff" style="fill: var(--color3, #fff)" d="M14.402 22.108c-0.133 0.211-0.248 0.469-0.284 0.764-0.043 0.347 0.035 0.648 0.143 0.888l0.141-1.652z"></path>
<path fill="#000" style="fill: var(--color2, #000)" opacity="0.87" d="M14.26 23.974c-0.083 0-0.163-0.048-0.198-0.128-0.146-0.328-0.2-0.665-0.158-1.001 0.036-0.288 0.141-0.573 0.314-0.851 0.063-0.101 0.196-0.132 0.298-0.070s0.133 0.194 0.070 0.295c-0.14 0.223-0.224 0.452-0.252 0.677-0.031 0.257 0.010 0.518 0.125 0.776 0.049 0.108-0.001 0.235-0.111 0.283-0.029 0.013-0.058 0.018-0.088 0.018z"></path>
<path fill="#000" style="fill: var(--color2, #000)" opacity="0.87" d="M11.629 21.457h-7.633c-0.127 0-0.23-0.082-0.23-0.183s0.104-0.183 0.23-0.183h7.633c0.127 0 0.23 0.082 0.23 0.183s-0.104 0.183-0.23 0.183z"></path>
<path fill="#000" style="fill: var(--color2, #000)" opacity="0.87" d="M39.421 21.496h-7.177c-0.119 0-0.217-0.096-0.217-0.215s0.097-0.215 0.217-0.215h7.177c0.119 0 0.217 0.097 0.217 0.215s-0.096 0.215-0.217 0.215z"></path>
<path fill="#000" style="fill: var(--color2, #000)" opacity="0.87" d="M24.192 17.548c-0.156 0.401-0.517 0.836-0.975 0.901-0.424 0.059-0.814-0.165-1.094-0.514-0.027 0.074-0.061 0.15-0.104 0.226-0.070 0.125-0.448 0.74-1.079 0.74h-0.017c-0.6-0.011-1.121-0.552-1.212-1.262-0.014-0.118 0.069-0.225 0.188-0.239 0.117-0.015 0.228 0.069 0.242 0.186 0.069 0.547 0.456 0.881 0.79 0.886h0.009c0.398 0 0.672-0.467 0.702-0.52 0.149-0.266 0.146-0.539 0.119-0.718-0.010-0.033-0.018-0.067-0.027-0.1-0.417 0.048-0.777-0.097-0.843-0.361-0.075-0.3 0.26-0.642 0.749-0.762 0.49-0.12 0.947 0.026 1.021 0.326 0.063 0.248-0.153 0.522-0.504 0.679 0.011 0.040 0.021 0.087 0.029 0.138 0.175 0.577 0.624 0.915 0.971 0.868 0.269-0.039 0.521-0.347 0.631-0.63 0.093-0.24 0.080-0.467 0.053-0.614-0.021-0.117 0.057-0.229 0.174-0.25 0.119-0.020 0.231 0.057 0.252 0.173 0.037 0.202 0.054 0.511-0.075 0.845z"></path>

</svg>